<svg xmlns="http://www.w3.org/2000/svg" viewBox="0 0 460 460">
    <path fill="#c53e16" d="M380 49l10 56.57-10 56.57-29-29V440H230l-20-185 20-175 92.418-59.998L351 20z"/>
    <path fill="#af2b12" d="M460 129v131l-40 20-40-20V49z"/>
    <path fill="#762916" d="M380 260h80v30h-80z"/>
    <path fill="#f0651f" d="M230 80v360H109V133.14l-29 29-10-56.57L80 49l29-29 28.582.002z"/>
    <path fill="#f58330" d="M80 162.14V260l-40 20-40-20V129l80-80z"/>
    <path fill="#893a31" d="M0 260h80v30H0zM109 382h30v28h-30zM109 322h30v28h-30zM109 262h30v28h-30z"/>
    <path fill="#762916"
          d="M321 382h30v28h-30zM321 322h30v28h-30zM321 262h30v28h-30zM270.61 181.82l-19.4 19.39 19.4 19.4-21.22 21.21L230 222.43l-10-21.215L230 180l19.39-19.39z"/>
    <path fill="#893a31" d="M230 180v42.43l-19.39 19.39-21.22-21.21 19.4-19.4-19.4-19.39 21.22-21.21z"/>
    <path fill="#762916" d="M230 70l-10 21.215 10 21.215 19.39 19.39 21.22-21.21-19.4-19.4 71.208-71.208L280 20z"/>
    <path fill="#893a31" d="M230 70v42.43l-19.39 19.39-21.22-21.21 19.4-19.4-71.208-71.208L180 20z"/>
</svg>
